<svg width="41" height="16" viewBox="0 0 41 16" fill="none" xmlns="http://www.w3.org/2000/svg">
<path d="M3 12V2H0V12H3ZM10 0H15C15 0 20 0 20 4V10C20 11.77 19 12.76 17.93 13.31C17.7687 12.3842 17.2863 11.545 16.5675 10.9396C15.8488 10.3343 14.9397 10.0016 14 10H11V12H14C14.5304 12 15.0391 12.2107 15.4142 12.5858C15.7893 12.9609 16 13.4696 16 14C16 14.5304 15.7893 15.0391 15.4142 15.4142C15.0391 15.7893 14.5304 16 14 16H9C5 16 5 12 5 12V2C5 2 6 0 10 0Z" fill="black"/>
<path d="M38 12V2H41V12H38ZM31 0H26C26 0 21 0 21 4V10C21 11.77 22 12.76 23.07 13.31C23.2313 12.3842 23.7137 11.545 24.4325 10.9396C25.1512 10.3343 26.0603 10.0016 27 10H30V12H27C26.4696 12 25.9609 12.2107 25.5858 12.5858C25.2107 12.9609 25 13.4696 25 14C25 14.5304 25.2107 15.0391 25.5858 15.4142C25.9609 15.7893 26.4696 16 27 16H32C36 16 36 12 36 12V2C36 2 35 0 31 0Z" fill="black"/>
</svg>
